{
  "accessors": [
    {
      "bufferView": 2,
      "componentType": 5126,
      "count": 1070,
      "max": [
        13.668046951293945,
        35.64259719848633,
        13.323819160461426
      ],
      "min": [
        -13.668047904968262,
        -0.0018711048178374767,
        -10.61410903930664
      ],
      "type": "VEC3"
    },
    {
      "bufferView": 2,
      "byteOffset": 12840,
      "componentType": 5126,
      "count": 1070,
      "max": [
        0.9991355538368225,
        0.9999691843986511,
        0.999074399471283
      ],
      "min": [
        -0.9991355538368225,
        -0.9982743263244629,
        -0.9999921917915344
      ],
      "type": "VEC3"
    },
    {
      "bufferView": 3,
      "componentType": 5126,
      "count": 1070,
      "max": [
        1.0,
        1.0,
        1.0,
        1.0
      ],
      "min": [
        0.3019607961177826,
        0.3019607961177826,
        0.3019607961177826,
        1.0
      ],
      "type": "VEC4"
    },
    {
      "bufferView": 1,
      "componentType": 5126,
      "count": 1070,
      "max": [
        0.9959105849266052,
        0.992996096611023
      ],
      "min": [
        0.00759899290278554,
        0.0020447371061891317
      ],
      "type": "VEC2"
    },
    {
      "bufferView": 0,
      "componentType": 5125,
      "count": 4992,
      "type": "SCALAR"
    },
    {
      "bufferView": 2,
      "byteOffset": 25680,
      "componentType": 5126,
      "count": 33,
      "max": [
        4.2890625,
        34.3554573059082,
        3.569803476333618
      ],
      "min": [
        -4.2890625,
        29.16795539855957,
        1.353983759880066
      ],
      "type": "VEC3"
    },
    {
      "bufferView": 2,
      "byteOffset": 26076,
      "componentType": 5126,
      "count": 33,
      "max": [
        0.9955351948738098,
        0.7684804201126099,
        0.9996249079704285
      ],
      "min": [
        -0.9955351948738098,
        -0.18800745904445648,
        0.07823456078767776
      ],
      "type": "VEC3"
    },
    {
      "bufferView": 3,
      "byteOffset": 17120,
      "componentType": 5126,
      "count": 33,
      "max": [
        0.9529411792755127,
        0.9529411792755127,
        0.9529411792755127,
        1.0
      ],
      "min": [
        0.46666666865348816,
        0.46666666865348816,
        0.46666666865348816,
        1.0
      ],
      "type": "VEC4"
    },
    {
      "bufferView": 1,
      "byteOffset": 8560,
      "componentType": 5126,
      "count": 33,
      "max": [
        1.0099459886550903,
        0.9711750149726868
      ],
      "min": [
        0.07601100206375122,
        0.04751098155975342
      ],
      "type": "VEC2"
    },
    {
      "bufferView": 0,
      "byteOffset": 19968,
      "componentType": 5125,
      "count": 132,
      "type": "SCALAR"
    },
    {
      "bufferView": 2,
      "byteOffset": 26472,
      "componentType": 5126,
      "count": 326,
      "max": [
        11.163219451904297,
        35.64258575439453,
        13.323808670043945
      ],
      "min": [
        -11.163228988647461,
        19.33188819885254,
        -7.793387413024902
      ],
      "type": "VEC3"
    },
    {
      "bufferView": 2,
      "byteOffset": 30384,
      "componentType": 5126,
      "count": 326,
      "max": [
        0.9953982830047607,
        0.9987030029296875,
        0.9943976998329163
      ],
      "min": [
        -0.9953982830047607,
        -0.9990267157554626,
        -0.9997683763504028
      ],
      "type": "VEC3"
    },
    {
      "bufferView": 3,
      "byteOffset": 17648,
      "componentType": 5126,
      "count": 326,
      "max": [
        1.0,
        1.0,
        1.0,
        1.0
      ],
      "min": [
        0.3019607961177826,
        0.3019607961177826,
        0.3019607961177826,
        1.0
      ],
      "type": "VEC4"
    },
    {
      "bufferView": 1,
      "byteOffset": 8824,
      "componentType": 5126,
      "count": 326,
      "max": [
        0.742824375629425,
        0.9979857802391052
      ],
      "min": [
        0.00759899290278554,
        0.0020447371061891317
      ],
      "type": "VEC2"
    },
    {
      "bufferView": 0,
      "byteOffset": 20496,
      "componentType": 5125,
      "count": 1539,
      "type": "SCALAR"
    },
    {
      "bufferView": 2,
      "byteOffset": 34296,
      "componentType": 5126,
      "count": 33,
      "max": [
        4.2890625,
        34.3554573059082,
        3.5698037147521973
      ],
      "min": [
        -4.2890625,
        29.16795539855957,
        1.353983759880066
      ],
      "type": "VEC3"
    },
    {
      "bufferView": 2,
      "byteOffset": 34692,
      "componentType": 5126,
      "count": 33,
      "max": [
        0.9741343259811401,
        0.7684804201126099,
        0.9996249079704285
      ],
      "min": [
        -0.9741343259811401,
        -0.2013760805130005,
        0.1701800376176834
      ],
      "type": "VEC3"
    },
    {
      "bufferView": 3,
      "byteOffset": 22864,
      "componentType": 5126,
      "count": 33,
      "max": [
        0.9529411792755127,
        0.9529411792755127,
        0.9529411792755127,
        1.0
      ],
      "min": [
        0.46666666865348816,
        0.46666666865348816,
        0.46666666865348816,
        1.0
      ],
      "type": "VEC4"
    },
    {
      "bufferView": 1,
      "byteOffset": 11432,
      "componentType": 5126,
      "count": 33,
      "max": [
        1.0099459886550903,
        0.9711750149726868
      ],
      "min": [
        0.07601100206375122,
        0.04751098155975342
      ],
      "type": "VEC2"
    },
    {
      "bufferView": 0,
      "byteOffset": 26652,
      "componentType": 5125,
      "count": 132,
      "type": "SCALAR"
    },
    {
      "bufferView": 2,
      "byteOffset": 35088,
      "componentType": 5126,
      "count": 43,
      "max": [
        2.822265863418579,
        25.049890518188477,
        35.68112564086914
      ],
      "min": [
        -2.822265863418579,
        20.868270874023438,
        -0.4137292206287384
      ],
      "type": "VEC3"
    },
    {
      "bufferView": 2,
      "byteOffset": 35604,
      "componentType": 5126,
      "count": 43,
      "max": [
        0.999724268913269,
        0.9999310374259949,
        0.8179423213005066
      ],
      "min": [
        -0.999724268913269,
        -0.999724268913269,
        -0.227238729596138
      ],
      "type": "VEC3"
    },
    {
      "bufferView": 3,
      "byteOffset": 23392,
      "componentType": 5126,
      "count": 43,
      "max": [
        1.0,
        1.0,
        1.0,
        1.0
      ],
      "min": [
        0.3019607961177826,
        0.3019607961177826,
        0.3019607961177826,
        1.0
      ],
      "type": "VEC4"
    },
    {
      "bufferView": 1,
      "byteOffset": 11696,
      "componentType": 5126,
      "count": 43,
      "max": [
        0.2397955060005188,
        0.11885250359773636
      ],
      "min": [
        0.13397419452667236,
        0.013046439737081528
      ],
      "type": "VEC2"
    },
    {
      "bufferView": 0,
      "byteOffset": 27180,
      "componentType": 5125,
      "count": 240,
      "type": "SCALAR"
    },
    {
      "bufferView": 2,
      "byteOffset": 36120,
      "componentType": 5126,
      "count": 43,
      "max": [
        2.822265863418579,
        25.049890518188477,
        35.68112564086914
      ],
      "min": [
        -2.822265863418579,
        20.868270874023438,
        -0.4137292206287384
      ],
      "type": "VEC3"
    },
    {
      "bufferView": 2,
      "byteOffset": 36636,
      "componentType": 5126,
      "count": 43,
      "max": [
        0.999724268913269,
        0.9999310374259949,
        0.8179423213005066
      ],
      "min": [
        -0.999724268913269,
        -0.999724268913269,
        -0.227238729596138
      ],
      "type": "VEC3"
    },
    {
      "bufferView": 3,
      "byteOffset": 24080,
      "componentType": 5126,
      "count": 43,
      "max": [
        1.0,
        1.0,
        1.0,
        1.0
      ],
      "min": [
        0.3019607961177826,
        0.3019607961177826,
        0.3019607961177826,
        1.0
      ],
      "type": "VEC4"
    },
    {
      "bufferView": 1,
      "byteOffset": 12040,
      "componentType": 5126,
      "count": 43,
      "max": [
        0.2397955060005188,
        0.11885250359773636
      ],
      "min": [
        0.13397419452667236,
        0.013046439737081528
      ],
      "type": "VEC2"
    },
    {
      "bufferView": 0,
      "byteOffset": 28140,
      "componentType": 5125,
      "count": 240,
      "type": "SCALAR"
    },
    {
      "bufferView": 2,
      "byteOffset": 37152,
      "componentType": 5126,
      "count": 33,
      "max": [
        4.2890625,
        34.3554573059082,
        3.5698037147521973
      ],
      "min": [
        -4.2890625,
        29.16795539855957,
        1.353983759880066
      ],
      "type": "VEC3"
    },
    {
      "bufferView": 2,
      "byteOffset": 37548,
      "componentType": 5126,
      "count": 33,
      "max": [
        0.9741343259811401,
        0.7684804201126099,
        0.9996249079704285
      ],
      "min": [
        -0.9741343259811401,
        -0.2013760805130005,
        0.1701800376176834
      ],
      "type": "VEC3"
    },
    {
      "bufferView": 3,
      "byteOffset": 24768,
      "componentType": 5126,
      "count": 33,
      "max": [
        0.9529411792755127,
        0.9529411792755127,
        0.9529411792755127,
        1.0
      ],
      "min": [
        0.46666666865348816,
        0.46666666865348816,
        0.46666666865348816,
        1.0
      ],
      "type": "VEC4"
    },
    {
      "bufferView": 1,
      "byteOffset": 12384,
      "componentType": 5126,
      "count": 33,
      "max": [
        1.0099459886550903,
        0.9711750149726868
      ],
      "min": [
        0.07601100206375122,
        0.04751098155975342
      ],
      "type": "VEC2"
    },
    {
      "bufferView": 0,
      "byteOffset": 29100,
      "componentType": 5125,
      "count": 132,
      "type": "SCALAR"
    },
    {
      "bufferView": 2,
      "byteOffset": 37944,
      "componentType": 5126,
      "count": 326,
      "max": [
        11.163219451904297,
        35.64258575439453,
        13.323808670043945
      ],
      "min": [
        -11.163228988647461,
        19.33188819885254,
        -7.793387413024902
      ],
      "type": "VEC3"
    },
    {
      "bufferView": 2,
      "byteOffset": 41856,
      "componentType": 5126,
      "count": 326,
      "max": [
        0.9953982830047607,
        0.9987030029296875,
        0.9943976998329163
      ],
      "min": [
        -0.9953982830047607,
        -0.9990267157554626,
        -0.9997683763504028
      ],
      "type": "VEC3"
    },
    {
      "bufferView": 3,
      "byteOffset": 25296,
      "componentType": 5126,
      "count": 326,
      "max": [
        1.0,
        1.0,
        1.0,
        1.0
      ],
      "min": [
        0.3019607961177826,
        0.3019607961177826,
        0.3019607961177826,
        1.0
      ],
      "type": "VEC4"
    },
    {
      "bufferView": 1,
      "byteOffset": 12648,
      "componentType": 5126,
      "count": 326,
      "max": [
        0.742824375629425,
        0.9979857802391052
      ],
      "min": [
        0.00759899290278554,
        0.0020447371061891317
      ],
      "type": "VEC2"
    },
    {
      "bufferView": 0,
      "byteOffset": 29628,
      "componentType": 5125,
      "count": 1539,
      "type": "SCALAR"
    },
    {
      "bufferView": 2,
      "byteOffset": 45768,
      "componentType": 5126,
      "count": 33,
      "max": [
        4.2890625,
        34.3554573059082,
        3.569803476333618
      ],
      "min": [
        -4.2890625,
        29.16795539855957,
        1.353983759880066
      ],
      "type": "VEC3"
    },
    {
      "bufferView": 2,
      "byteOffset": 46164,
      "componentType": 5126,
      "count": 33,
      "max": [
        0.9955351948738098,
        0.7684804201126099,
        0.9996249079704285
      ],
      "min": [
        -0.9955351948738098,
        -0.18800745904445648,
        0.07823456078767776
      ],
      "type": "VEC3"
    },
    {
      "bufferView": 3,
      "byteOffset": 30512,
      "componentType": 5126,
      "count": 33,
      "max": [
        0.9529411792755127,
        0.9529411792755127,
        0.9529411792755127,
        1.0
      ],
      "min": [
        0.46666666865348816,
        0.46666666865348816,
        0.46666666865348816,
        1.0
      ],
      "type": "VEC4"
    },
    {
      "bufferView": 1,
      "byteOffset": 15256,
      "componentType": 5126,
      "count": 33,
      "max": [
        1.0099459886550903,
        0.9711750149726868
      ],
      "min": [
        0.07601100206375122,
        0.04751098155975342
      ],
      "type": "VEC2"
    },
    {
      "bufferView": 0,
      "byteOffset": 35784,
      "componentType": 5125,
      "count": 132,
      "type": "SCALAR"
    },
    {
      "bufferView": 2,
      "byteOffset": 46560,
      "componentType": 5126,
      "count": 1070,
      "max": [
        13.668046951293945,
        35.64259719848633,
        13.323819160461426
      ],
      "min": [
        -13.668047904968262,
        -0.0018711048178374767,
        -10.61410903930664
      ],
      "type": "VEC3"
    },
    {
      "bufferView": 2,
      "byteOffset": 59400,
      "componentType": 5126,
      "count": 1070,
      "max": [
        0.9991355538368225,
        0.9999691843986511,
        0.999074399471283
      ],
      "min": [
        -0.9991355538368225,
        -0.9982743263244629,
        -0.9999921917915344
      ],
      "type": "VEC3"
    },
    {
      "bufferView": 3,
      "byteOffset": 31040,
      "componentType": 5126,
      "count": 1070,
      "max": [
        1.0,
        1.0,
        1.0,
        1.0
      ],
      "min": [
        0.3019607961177826,
        0.3019607961177826,
        0.3019607961177826,
        1.0
      ],
      "type": "VEC4"
    },
    {
      "bufferView": 1,
      "byteOffset": 15520,
      "componentType": 5126,
      "count": 1070,
      "max": [
        0.9959105849266052,
        0.992996096611023
      ],
      "min": [
        0.00759899290278554,
        0.0020447371061891317
      ],
      "type": "VEC2"
    },
    {
      "bufferView": 0,
      "byteOffset": 36312,
      "componentType": 5125,
      "count": 4992,
      "type": "SCALAR"
    }
  ],
  "asset": {
    "extras": {
      "author": "H,yoshi (https://sketchfab.com/HY2245)",
      "license": "CC-BY-4.0 (http://creativecommons.org/licenses/by/4.0/)",
      "source": "https://sketchfab.com/3d-models/wii-u-new-super-mario-bros-u-yoshi-14901d74eb4b4c78a1da99445880c299",
      "title": "Wii U - New Super Mario Bros U - Yoshi"
    },
    "generator": "Sketchfab-16.45.0",
    "version": "2.0"
  },
  "bufferViews": [
    {
      "buffer": 0,
      "byteLength": 56280,
      "name": "floatBufferViews",
      "target": 34963
    },
    {
      "buffer": 0,
      "byteLength": 24080,
      "byteOffset": 56280,
      "byteStride": 8,
      "name": "floatBufferViews",
      "target": 34962
    },
    {
      "buffer": 0,
      "byteLength": 72240,
      "byteOffset": 80360,
      "byteStride": 12,
      "name": "floatBufferViews",
      "target": 34962
    },
    {
      "buffer": 0,
      "byteLength": 48160,
      "byteOffset": 152600,
      "byteStride": 16,
      "name": "floatBufferViews",
      "target": 34962
    }
  ],
  "buffers": [
    {
      "byteLength": 200760,
      "uri": "scene.bin"
    }
  ],
  "images": [
    {
      "uri": "textures/material_0_baseColor.png"
    },
    {
      "uri": "textures/material_1_baseColor.png"
    }
  ],
  "materials": [
    {
      "doubleSided": true,
      "name": "material_0",
      "pbrMetallicRoughness": {
        "baseColorTexture": {
          "index": 0
        },
        "metallicFactor": 0.0
      }
    },
    {
      "doubleSided": true,
      "name": "material_1",
      "pbrMetallicRoughness": {
        "baseColorTexture": {
          "index": 1
        },
        "metallicFactor": 0.0,
        "roughnessFactor": 0.6
      }
    },
    {
      "doubleSided": true,
      "name": "material_2",
      "pbrMetallicRoughness": {
        "baseColorTexture": {
          "index": 0
        },
        "metallicFactor": 0.0
      }
    },
    {
      "doubleSided": true,
      "name": "material_3",
      "pbrMetallicRoughness": {
        "baseColorTexture": {
          "index": 1
        },
        "metallicFactor": 0.0,
        "roughnessFactor": 0.6
      }
    },
    {
      "doubleSided": true,
      "name": "material_4",
      "pbrMetallicRoughness": {
        "baseColorTexture": {
          "index": 0
        },
        "metallicFactor": 0.0
      }
    }
  ],
  "meshes": [
    {
      "name": "Object_0",
      "primitives": [
        {
          "attributes": {
            "COLOR_0": 2,
            "NORMAL": 1,
            "POSITION": 0,
            "TEXCOORD_0": 3
          },
          "indices": 4,
          "material": 0,
          "mode": 4
        }
      ]
    },
    {
      "name": "Object_1",
      "primitives": [
        {
          "attributes": {
            "COLOR_0": 7,
            "NORMAL": 6,
            "POSITION": 5,
            "TEXCOORD_0": 8
          },
          "indices": 9,
          "material": 1,
          "mode": 4
        }
      ]
    },
    {
      "name": "Object_2",
      "primitives": [
        {
          "attributes": {
            "COLOR_0": 12,
            "NORMAL": 11,
            "POSITION": 10,
            "TEXCOORD_0": 13
          },
          "indices": 14,
          "material": 2,
          "mode": 4
        }
      ]
    },
    {
      "name": "Object_3",
      "primitives": [
        {
          "attributes": {
            "COLOR_0": 17,
            "NORMAL": 16,
            "POSITION": 15,
            "TEXCOORD_0": 18
          },
          "indices": 19,
          "material": 3,
          "mode": 4
        }
      ]
    },
    {
      "name": "Object_4",
      "primitives": [
        {
          "attributes": {
            "COLOR_0": 22,
            "NORMAL": 21,
            "POSITION": 20,
            "TEXCOORD_0": 23
          },
          "indices": 24,
          "material": 4,
          "mode": 4
        }
      ]
    },
    {
      "name": "Object_5",
      "primitives": [
        {
          "attributes": {
            "COLOR_0": 27,
            "NORMAL": 26,
            "POSITION": 25,
            "TEXCOORD_0": 28
          },
          "indices": 29,
          "material": 4,
          "mode": 4
        }
      ]
    },
    {
      "name": "Object_6",
      "primitives": [
        {
          "attributes": {
            "COLOR_0": 32,
            "NORMAL": 31,
            "POSITION": 30,
            "TEXCOORD_0": 33
          },
          "indices": 34,
          "material": 3,
          "mode": 4
        }
      ]
    },
    {
      "name": "Object_7",
      "primitives": [
        {
          "attributes": {
            "COLOR_0": 37,
            "NORMAL": 36,
            "POSITION": 35,
            "TEXCOORD_0": 38
          },
          "indices": 39,
          "material": 2,
          "mode": 4
        }
      ]
    },
    {
      "name": "Object_8",
      "primitives": [
        {
          "attributes": {
            "COLOR_0": 42,
            "NORMAL": 41,
            "POSITION": 40,
            "TEXCOORD_0": 43
          },
          "indices": 44,
          "material": 1,
          "mode": 4
        }
      ]
    },
    {
      "name": "Object_9",
      "primitives": [
        {
          "attributes": {
            "COLOR_0": 47,
            "NORMAL": 46,
            "POSITION": 45,
            "TEXCOORD_0": 48
          },
          "indices": 49,
          "material": 0,
          "mode": 4
        }
      ]
    }
  ],
  "nodes": [
    {
      "children": [
        1
      ],
      "matrix": [
        1.0,
        0.0,
        0.0,
        0.0,
        0.0,
        2.220446049250313e-16,
        -1.0,
        0.0,
        0.0,
        1.0,
        2.220446049250313e-16,
        0.0,
        0.0,
        0.0,
        0.0,
        1.0
      ],
      "name": "Sketchfab_model"
    },
    {
      "children": [
        2
      ],
      "matrix": [
        1.0,
        0.0,
        0.0,
        0.0,
        0.0,
        -4.371139006309477e-08,
        0.999999999999999,
        0.0,
        0.0,
        -0.999999999999999,
        -4.371139006309477e-08,
        0.0,
        0.0,
        0.0,
        0.0,
        1.0
      ],
      "name": "Collada visual scene group"
    },
    {
      "children": [
        3
      ],
      "name": "Armature"
    },
    {
      "children": [
        4,
        5,
        6,
        7,
        8,
        9,
        10,
        11,
        12,
        13
      ],
      "name": "Object_3"
    },
    {
      "mesh": 0,
      "name": "Object_4"
    },
    {
      "mesh": 1,
      "name": "Object_5"
    },
    {
      "mesh": 2,
      "name": "Object_6"
    },
    {
      "mesh": 3,
      "name": "Object_7"
    },
    {
      "mesh": 4,
      "name": "Object_8"
    },
    {
      "mesh": 5,
      "name": "Object_9"
    },
    {
      "mesh": 6,
      "name": "Object_10"
    },
    {
      "mesh": 7,
      "name": "Object_11"
    },
    {
      "mesh": 8,
      "name": "Object_12"
    },
    {
      "mesh": 9,
      "name": "Object_13"
    }
  ],
  "samplers": [
    {
      "magFilter": 9729,
      "minFilter": 9987,
      "wrapS": 33071,
      "wrapT": 33071
    }
  ],
  "scene": 0,
  "scenes": [
    {
      "name": "Sketchfab_Scene",
      "nodes": [
        0
      ]
    }
  ],
  "textures": [
    {
      "sampler": 0,
      "source": 0
    },
    {
      "sampler": 0,
      "source": 1
    }
  ]
}
